<svg id="artwork" xmlns="http://www.w3.org/2000/svg" viewBox="0 0 104.8 57.9"><style>.st0{fill:#e1251b}</style><path class="st0" d="M26.8 44.7c0 7-5.7 13.2-13 13.2-6.2 0-13.4-3-13.4-13.4V13.1C.4 5.7 5.7 0 13.6 0c7.5 0 13.1 5.7 13.1 13.6v3.2h-8.2v-2.7c0-3.2-1.9-5.9-5-5.9-4.1 0-5 2.8-5 6.6v29.1c0 3.3 1.3 5.8 5 5.8 2.2 0 5.1-1.3 5.1-5.8v-2.8h8.2v3.6zM33.4.5h8.2v24.4h10.1V.5h8.2v57h-8.2V32.1H41.6v25.4h-8.2V.5zM67.5.5h7.8l10.5 30.2h.2L96.4.5h7.9v57h-8.2V22.8H96l-8.1 24.5h-4.1l-8-24.5h-.2v34.7h-8.2V.5z"/></svg>